<mxfile host="65bd71144e">
    <diagram id="YQJvAO-ggJiKZI1ckaqk" name="Page-1">
        <mxGraphModel dx="1094" dy="658" grid="1" gridSize="10" guides="1" tooltips="1" connect="1" arrows="1" fold="1" page="1" pageScale="1" pageWidth="850" pageHeight="1100" background="#ffffff" math="0" shadow="0">
            <root>
                <mxCell id="0"/>
                <mxCell id="1" parent="0"/>
                <mxCell id="2" value="&lt;font style=&quot;font-size: 18px;&quot;&gt;7&lt;/font&gt;" style="text;html=1;align=center;verticalAlign=middle;whiteSpace=wrap;rounded=0;strokeColor=#BD7000;fontColor=#000000;fillColor=#f0a30a;" vertex="1" parent="1">
                    <mxGeometry x="330" y="318.75" width="60" height="45" as="geometry"/>
                </mxCell>
                <mxCell id="3" value="&lt;span style=&quot;font-size: 18px;&quot;&gt;1&lt;/span&gt;" style="text;html=1;align=center;verticalAlign=middle;whiteSpace=wrap;rounded=0;strokeColor=#001DBC;fontColor=#ffffff;fillColor=#0050ef;" vertex="1" parent="1">
                    <mxGeometry x="480" y="280" width="60" height="40" as="geometry"/>
                </mxCell>
                <mxCell id="4" value="" style="endArrow=none;html=1;fontSize=18;startSize=6;endSize=10;entryX=0;entryY=0.5;entryDx=0;entryDy=0;exitX=1;exitY=0.5;exitDx=0;exitDy=0;fontColor=#000000;strokeColor=#000000;endFill=0;" edge="1" parent="1" source="2" target="3">
                    <mxGeometry width="50" height="50" relative="1" as="geometry">
                        <mxPoint x="10" y="447.5" as="sourcePoint"/>
                        <mxPoint x="300" y="352.5" as="targetPoint"/>
                    </mxGeometry>
                </mxCell>
                <mxCell id="6" value="&lt;span style=&quot;font-size: 18px;&quot;&gt;2&lt;/span&gt;" style="text;html=1;align=center;verticalAlign=middle;whiteSpace=wrap;rounded=0;strokeColor=#BD7000;fontColor=#000000;fillColor=#f0a30a;" vertex="1" parent="1">
                    <mxGeometry x="640" y="318.75" width="60" height="40" as="geometry"/>
                </mxCell>
                <mxCell id="7" value="" style="endArrow=none;html=1;fontSize=18;startSize=6;endSize=10;entryX=0;entryY=0.5;entryDx=0;entryDy=0;exitX=1;exitY=0.5;exitDx=0;exitDy=0;fontColor=#000000;strokeColor=#000000;endFill=0;" edge="1" parent="1" source="3" target="6">
                    <mxGeometry width="50" height="50" relative="1" as="geometry">
                        <mxPoint x="400" y="351.25" as="sourcePoint"/>
                        <mxPoint x="490" y="310" as="targetPoint"/>
                    </mxGeometry>
                </mxCell>
                <mxCell id="8" value="&lt;font style=&quot;font-size: 18px;&quot;&gt;6&lt;/font&gt;" style="text;html=1;align=center;verticalAlign=middle;whiteSpace=wrap;rounded=0;strokeColor=#001DBC;fontColor=#ffffff;fillColor=#0050ef;" vertex="1" parent="1">
                    <mxGeometry x="330" y="430" width="60" height="45" as="geometry"/>
                </mxCell>
                <mxCell id="9" value="&lt;font style=&quot;font-size: 18px;&quot;&gt;3&lt;/font&gt;" style="text;html=1;align=center;verticalAlign=middle;whiteSpace=wrap;rounded=0;strokeColor=#BD7000;fontColor=#000000;fillColor=#f0a30a;" vertex="1" parent="1">
                    <mxGeometry x="650" y="430" width="60" height="45" as="geometry"/>
                </mxCell>
                <mxCell id="10" value="&lt;font style=&quot;font-size: 18px;&quot;&gt;5&lt;/font&gt;" style="text;html=1;align=center;verticalAlign=middle;whiteSpace=wrap;rounded=0;strokeColor=#005700;fontColor=#ffffff;fillColor=#008a00;" vertex="1" parent="1">
                    <mxGeometry x="410" y="520" width="60" height="45" as="geometry"/>
                </mxCell>
                <mxCell id="11" value="&lt;font style=&quot;font-size: 18px;&quot;&gt;4&lt;/font&gt;" style="text;html=1;align=center;verticalAlign=middle;whiteSpace=wrap;rounded=0;strokeColor=#001DBC;fontColor=#ffffff;fillColor=#0050ef;" vertex="1" parent="1">
                    <mxGeometry x="550" y="520" width="60" height="45" as="geometry"/>
                </mxCell>
                <mxCell id="12" value="" style="endArrow=none;html=1;fontSize=18;startSize=6;endSize=10;entryX=0.5;entryY=0;entryDx=0;entryDy=0;exitX=0.5;exitY=1;exitDx=0;exitDy=0;fontColor=#000000;strokeColor=#000000;endFill=0;" edge="1" parent="1" source="2" target="8">
                    <mxGeometry width="50" height="50" relative="1" as="geometry">
                        <mxPoint x="400" y="351.25" as="sourcePoint"/>
                        <mxPoint x="490" y="310" as="targetPoint"/>
                    </mxGeometry>
                </mxCell>
                <mxCell id="14" value="" style="endArrow=none;html=1;fontSize=18;startSize=6;endSize=10;entryX=0.5;entryY=0;entryDx=0;entryDy=0;exitX=1;exitY=1;exitDx=0;exitDy=0;fontColor=#000000;strokeColor=#000000;endFill=0;" edge="1" parent="1" source="2" target="10">
                    <mxGeometry width="50" height="50" relative="1" as="geometry">
                        <mxPoint x="420" y="371.25" as="sourcePoint"/>
                        <mxPoint x="510" y="330" as="targetPoint"/>
                    </mxGeometry>
                </mxCell>
                <mxCell id="16" value="" style="endArrow=none;html=1;fontSize=18;startSize=6;endSize=10;entryX=0;entryY=0.5;entryDx=0;entryDy=0;exitX=1;exitY=0.5;exitDx=0;exitDy=0;fontColor=#000000;strokeColor=#000000;endFill=0;" edge="1" parent="1" source="8" target="9">
                    <mxGeometry width="50" height="50" relative="1" as="geometry">
                        <mxPoint x="430" y="381.25" as="sourcePoint"/>
                        <mxPoint x="520" y="340" as="targetPoint"/>
                    </mxGeometry>
                </mxCell>
                <mxCell id="17" value="" style="endArrow=none;html=1;fontSize=18;startSize=6;endSize=10;entryX=0.5;entryY=1;entryDx=0;entryDy=0;exitX=0.75;exitY=0;exitDx=0;exitDy=0;fontColor=#000000;strokeColor=#000000;endFill=0;" edge="1" parent="1" source="10" target="3">
                    <mxGeometry width="50" height="50" relative="1" as="geometry">
                        <mxPoint x="440" y="391.25" as="sourcePoint"/>
                        <mxPoint x="530" y="350" as="targetPoint"/>
                    </mxGeometry>
                </mxCell>
                <mxCell id="18" value="" style="endArrow=none;html=1;fontSize=18;startSize=6;endSize=10;entryX=0;entryY=1;entryDx=0;entryDy=0;exitX=1;exitY=0;exitDx=0;exitDy=0;fontColor=#000000;strokeColor=#000000;endFill=0;" edge="1" parent="1" source="10" target="6">
                    <mxGeometry width="50" height="50" relative="1" as="geometry">
                        <mxPoint x="450" y="401.25" as="sourcePoint"/>
                        <mxPoint x="540" y="360" as="targetPoint"/>
                    </mxGeometry>
                </mxCell>
                <mxCell id="19" value="" style="endArrow=none;html=1;fontSize=18;startSize=6;endSize=10;entryX=0;entryY=0.5;entryDx=0;entryDy=0;exitX=1;exitY=0.5;exitDx=0;exitDy=0;fontColor=#000000;strokeColor=#000000;endFill=0;" edge="1" parent="1" source="10" target="11">
                    <mxGeometry width="50" height="50" relative="1" as="geometry">
                        <mxPoint x="460" y="411.25" as="sourcePoint"/>
                        <mxPoint x="550" y="370" as="targetPoint"/>
                    </mxGeometry>
                </mxCell>
                <mxCell id="20" value="" style="endArrow=none;html=1;fontSize=18;startSize=6;endSize=10;entryX=0.5;entryY=1;entryDx=0;entryDy=0;exitX=1;exitY=0.5;exitDx=0;exitDy=0;fontColor=#000000;strokeColor=#000000;endFill=0;" edge="1" parent="1" source="11" target="9">
                    <mxGeometry width="50" height="50" relative="1" as="geometry">
                        <mxPoint x="470" y="421.25" as="sourcePoint"/>
                        <mxPoint x="560" y="380" as="targetPoint"/>
                    </mxGeometry>
                </mxCell>
                <mxCell id="21" value="" style="endArrow=none;html=1;fontSize=18;startSize=6;endSize=10;entryX=0.25;entryY=1;entryDx=0;entryDy=0;exitX=0.75;exitY=0;exitDx=0;exitDy=0;fontColor=#000000;strokeColor=#000000;endFill=0;" edge="1" parent="1" source="11" target="6">
                    <mxGeometry width="50" height="50" relative="1" as="geometry">
                        <mxPoint x="480" y="431.25" as="sourcePoint"/>
                        <mxPoint x="570" y="390" as="targetPoint"/>
                    </mxGeometry>
                </mxCell>
                <mxCell id="22" value="" style="endArrow=none;html=1;fontSize=18;startSize=6;endSize=10;entryX=0.75;entryY=1;entryDx=0;entryDy=0;exitX=0;exitY=0.25;exitDx=0;exitDy=0;fontColor=#000000;strokeColor=#000000;endFill=0;" edge="1" parent="1" source="9" target="3">
                    <mxGeometry width="50" height="50" relative="1" as="geometry">
                        <mxPoint x="490" y="441.25" as="sourcePoint"/>
                        <mxPoint x="580" y="400" as="targetPoint"/>
                    </mxGeometry>
                </mxCell>
                <mxCell id="23" value="" style="endArrow=none;html=1;fontSize=18;startSize=6;endSize=10;entryX=0.367;entryY=0.022;entryDx=0;entryDy=0;exitX=1;exitY=0.75;exitDx=0;exitDy=0;fontColor=#000000;strokeColor=#000000;endFill=0;entryPerimeter=0;" edge="1" parent="1" source="2" target="11">
                    <mxGeometry width="50" height="50" relative="1" as="geometry">
                        <mxPoint x="500" y="451.25" as="sourcePoint"/>
                        <mxPoint x="590" y="410" as="targetPoint"/>
                    </mxGeometry>
                </mxCell>
                <mxCell id="24" value="" style="endArrow=none;html=1;fontSize=18;startSize=6;endSize=10;entryX=0;entryY=0.75;entryDx=0;entryDy=0;exitX=1;exitY=0.25;exitDx=0;exitDy=0;fontColor=#000000;strokeColor=#000000;endFill=0;" edge="1" parent="1" source="10" target="9">
                    <mxGeometry width="50" height="50" relative="1" as="geometry">
                        <mxPoint x="510" y="461.25" as="sourcePoint"/>
                        <mxPoint x="600" y="420" as="targetPoint"/>
                    </mxGeometry>
                </mxCell>
            </root>
        </mxGraphModel>
    </diagram>
</mxfile>